<svg width="182" height="44" viewBox="0 0 182 44" fill="none" xmlns="http://www.w3.org/2000/svg">
    <path d="M19.4897 2.84538L3.09254 19.0859C1.5463 20.6174 1.5463 23.1004 3.09254 24.6319L19.4897 40.8724C21.036 42.4039 23.5429 42.4039 25.0892 40.8724L41.4864 24.6319C43.0327 23.1004 43.0327 20.6174 41.4864 19.0859L25.0892 2.84538C23.5429 1.31391 21.036 1.31391 19.4897 2.84538Z" fill="white"/>
    <path d="M4.45432 8.82353C6.91436 8.82353 8.90862 6.84831 8.90862 4.41176C8.90862 1.97521 6.91436 0 4.45432 0C1.99426 0 0 1.97521 0 4.41176C0 6.84831 1.99426 8.82353 4.45432 8.82353Z" fill="#07F2B4"/>
    <path d="M50.7051 10.2099H72.4582V12.9849H63.0004V34.9999H60.1252V12.9849H50.7051V10.2099Z" fill="white"/>
    <path d="M80.9041 35.4809C77.9785 35.4809 75.5699 34.5559 73.6783 32.7059C71.8119 30.8312 70.8788 28.5495 70.8788 25.8609C70.8788 23.1475 71.8119 20.8782 73.6783 19.0529C75.5446 17.2029 77.9532 16.2779 80.9041 16.2779C83.8045 16.2779 86.1753 17.2029 88.0164 19.0529C89.8575 20.8782 90.7781 23.1475 90.7781 25.8609C90.7781 28.5495 89.8449 30.8312 87.9786 32.7059C86.1375 34.5559 83.7793 35.4809 80.9041 35.4809ZM80.9041 32.8169C82.9722 32.8169 84.662 32.1385 85.9735 30.7819C87.285 29.4252 87.9408 27.7849 87.9408 25.8609C87.9408 23.9122 87.285 22.2719 85.9735 20.9399C84.662 19.6079 82.9722 18.9419 80.9041 18.9419C78.7855 18.9419 77.0579 19.6079 75.7212 20.9399C74.4097 22.2719 73.754 23.9122 73.754 25.8609C73.754 27.8095 74.4097 29.4622 75.7212 30.8189C77.0579 32.1509 78.7855 32.8169 80.9041 32.8169Z" fill="white"/>
    <path d="M107.324 23.8629H107.551C108.963 23.8629 110.048 24.2329 110.804 24.9729C111.586 25.6882 111.977 26.7365 111.977 28.1179V34.9999H109.14V28.4879C109.14 27.1559 108.446 26.4899 107.059 26.4899H98.0929V34.9999H95.2555V8.35986H98.0929V23.8629H104.108L108.988 16.7589H112.128L107.324 23.8629Z" fill="white"/>
    <path d="M129.491 23.8629H129.718C131.13 23.8629 132.214 24.2329 132.971 24.9729C133.753 25.6882 134.144 26.7365 134.144 28.1179V34.9999H131.307V28.4879C131.307 27.1559 130.613 26.4899 129.226 26.4899H120.26V34.9999H117.422V8.35986H120.26V23.8629H126.275L131.155 16.7589H134.295L129.491 23.8629Z" fill="white"/>
    <path d="M147.618 16.2779C150.544 16.2779 152.902 17.2769 154.693 19.2749C156.484 21.2729 157.291 23.8012 157.114 26.8599H140.96C141.086 28.5619 141.78 29.9802 143.041 31.1149C144.302 32.2495 145.878 32.8169 147.77 32.8169C149.157 32.8169 150.393 32.5085 151.477 31.8919C152.562 31.2505 153.344 30.3995 153.823 29.3389H156.774C156.143 31.2135 155.008 32.7059 153.369 33.8159C151.729 34.9259 149.825 35.4809 147.656 35.4809C144.781 35.4809 142.448 34.5559 140.657 32.7059C138.867 30.8559 137.971 28.5865 137.971 25.8979C137.971 23.2092 138.879 20.9399 140.695 19.0899C142.511 17.2152 144.819 16.2779 147.618 16.2779ZM151.931 20.4589C150.746 19.4475 149.283 18.9419 147.543 18.9419C145.802 18.9419 144.327 19.4599 143.116 20.4959C141.931 21.5072 141.237 22.8022 141.036 24.3809H154.088C153.835 22.7775 153.117 21.4702 151.931 20.4589Z" fill="white"/>
    <path d="M177.53 20.0149V16.7589H180.33V34.9999H177.53V31.5959H177.417C175.777 34.1612 173.343 35.4562 170.115 35.4809C167.366 35.5055 165.084 34.6052 163.268 32.7799C161.477 30.9545 160.582 28.6482 160.582 25.8609C160.582 23.0735 161.477 20.7795 163.268 18.9789C165.058 17.1535 167.353 16.2532 170.153 16.2779C171.742 16.3025 173.167 16.6479 174.428 17.3139C175.689 17.9799 176.685 18.8802 177.417 20.0149H177.53ZM170.531 32.8169C172.574 32.8169 174.251 32.1385 175.563 30.7819C176.874 29.4252 177.53 27.7849 177.53 25.8609C177.53 23.9122 176.874 22.2719 175.563 20.9399C174.277 19.6079 172.599 18.9419 170.531 18.9419C168.413 18.9419 166.698 19.6079 165.386 20.9399C164.075 22.2719 163.419 23.9122 163.419 25.8609C163.419 27.8095 164.075 29.4622 165.386 30.8189C166.698 32.1509 168.413 32.8169 170.531 32.8169Z" fill="white"/>
</svg>
