<svg width="24" height="24" viewBox="0 0 24 24" fill="none" xmlns="http://www.w3.org/2000/svg">
    <g clip-path="url(#clip0)">
        <path d="M13.54 12C13.5453 13.8017 12.8354 15.532 11.566 16.8107C10.2967 18.0894 8.57174 18.8121 6.77 18.82C4.96826 18.8121 3.24332 18.0894 1.97399 16.8107C0.704647 15.532 -0.00531765 13.8017 -8.69317e-07 12C-0.00531765 10.1982 0.704647 8.46804 1.97399 7.18932C3.24332 5.91061 4.96826 5.18793 6.77 5.17999C8.57174 5.18793 10.2967 5.91061 11.566 7.18932C12.8354 8.46804 13.5453 10.1982 13.54 12ZM20.96 12C20.96 15.54 19.45 18.42 17.58 18.42C15.71 18.42 14.19 15.54 14.19 12C14.19 8.45999 15.71 5.57999 17.58 5.57999C19.45 5.57999 20.96 8.45999 20.96 12ZM24 12C24 15.17 23.47 17.75 22.81 17.75C22.15 17.75 21.62 15.17 21.62 12C21.62 8.82999 22.15 6.24999 22.81 6.24999C23.47 6.24999 24 8.82999 24 12Z" fill="white"/>
    </g>
    <defs>
        <clipPath id="clip0">
            <rect width="24" height="24" fill="white"/>
        </clipPath>
    </defs>
</svg>
